<?xml version="1.0" encoding="iso-8859-1"?>
<!-- Generator: Adobe Illustrator 19.0.0, SVG Export Plug-In . SVG Version: 6.00 Build 0)  -->
<svg version="1.1" id="Layer_1" xmlns="http://www.w3.org/2000/svg" xmlns:xlink="http://www.w3.org/1999/xlink" x="0px" y="0px"
	 viewBox="0 0 511.998 511.998" style="enable-background:new 0 0 511.998 511.998;" xml:space="preserve">
<polygon style="fill:#734F42;" points="330.586,503.728 181.41,503.728 143.015,346.503 368.981,346.503 "/>
<g>
	<path style="fill:#6CC04A;" d="M255.998,307.524c0,0-39.19-33.449-102.617-66.29C89.956,208.392,80.5,117.523,80.5,117.523
		s39.189,33.449,102.614,66.291C246.541,216.654,255.998,307.524,255.998,307.524z"/>
	<path style="fill:#6CC04A;" d="M255.998,307.524c0,0,39.189-33.449,102.615-66.29c63.427-32.843,72.883-123.711,72.883-123.711
		s-39.191,33.449-102.614,66.291C265.456,216.654,255.998,307.524,255.998,307.524z"/>
</g>
<g>
	<path style="fill:#4E9D2D;" d="M255.998,226.771c0,0-32.526-39.96-89.003-83.685C110.52,99.361,117.581,8.271,117.581,8.271
		s32.526,39.96,89,83.686C263.058,135.683,255.998,226.771,255.998,226.771z"/>
	<path style="fill:#4E9D2D;" d="M255.998,226.771c0,0,32.525-39.96,89.001-83.685C401.475,99.361,394.415,8.271,394.415,8.271
		s-32.526,39.96-89,83.686C248.937,135.683,255.998,226.771,255.998,226.771z"/>
</g>
<path style="fill:#B28978;" d="M386.057,342.663c0,3.677-3.009,6.685-6.686,6.685H132.623c-3.677,0-6.686-3.009-6.686-6.685v-18.482
	c0-3.677,3.009-6.685,6.686-6.685h246.748c3.677,0,6.686,3.008,6.686,6.685V342.663z"/>
<path style="fill:#1E252B;" d="M435.347,110.202c-2.994-1.575-6.644-1.168-9.218,1.026c-0.386,0.329-39.316,33.272-101.049,65.239
	c-25.847,13.383-46.853,37.858-61.092,71.044v-17.39c7.101-8.325,37.906-43.199,86.077-80.494
	c24.718-19.138,41.646-49.852,48.951-88.821c5.433-28.979,3.721-52.199,3.646-53.173c-0.261-3.373-2.551-6.247-5.779-7.256
	c-3.233-1.009-6.747,0.05-8.883,2.673c-0.32,0.393-32.564,39.716-87.65,82.367c-15.218,11.782-27.476,27.957-36.362,47.739V67.869
	h-16.543v64.047c-8.837-19.218-20.9-34.965-35.798-46.499c-54.97-42.561-87.331-81.976-87.649-82.368
	c-2.135-2.623-5.653-3.679-8.883-2.673c-3.229,1.009-5.518,3.883-5.779,7.256c-0.075,0.974-1.788,24.195,3.646,53.173
	c7.305,38.968,24.234,69.682,48.951,88.822c47.026,36.408,77.483,70.49,85.513,79.835v16.749
	c-14.226-32.525-35.019-56.537-60.526-69.745c-61.736-31.967-100.664-64.909-101.048-65.237c-2.574-2.196-6.224-2.604-9.219-1.03
	c-2.994,1.574-4.729,4.813-4.378,8.178c0.1,0.972,2.598,24.121,13.161,51.647c14.203,37.016,36.384,64.179,64.145,78.554
	c48.163,24.937,82.442,50.468,95.371,60.645H132.623c-8.247,0-14.957,6.709-14.957,14.956v18.482c0,8.247,6.71,14.956,14.957,14.956
	h4.591l36.159,148.07c0.904,3.703,4.223,6.31,8.036,6.31h149.176c3.813,0,7.131-2.606,8.036-6.31l36.159-148.068h4.592
	c8.247,0,14.957-6.709,14.957-14.956v-18.483c0-8.247-6.71-14.956-14.957-14.956H267.046c12.93-10.178,47.208-35.708,95.371-60.645
	c27.762-14.375,49.942-41.539,64.146-78.554c10.562-27.527,13.06-50.675,13.162-51.647
	C440.074,115.014,438.34,111.777,435.347,110.202z M310.477,98.497c34.935-27.048,60.66-52.47,75.547-68.352
	c-1.655,28.405-9.941,78.413-46.089,106.402c-34.956,27.064-60.693,52.501-75.576,68.381
	C265.982,176.55,274.229,126.561,310.477,98.497z M157.186,233.888c-40.598-21.022-57.754-68.722-64.495-96.361
	c17.504,12.941,47.386,33.315,86.62,53.631c40.598,21.022,57.754,68.718,64.497,96.36
	C226.303,274.577,196.421,254.204,157.186,233.888z M172.059,136.547c-36.151-27.991-44.435-78-46.089-106.402
	c14.888,15.882,40.614,41.304,75.547,68.352c35.087,27.166,43.923,75.072,45.926,103.837v2.387
	C232.531,188.829,206.869,163.497,172.059,136.547z M324.091,495.457H187.904l-33.659-137.836H357.75L324.091,495.457z
	 M377.785,325.768v15.309H134.21v-15.309H377.785z M354.81,233.888c-39.259,20.327-69.154,40.713-86.654,53.654
	c6.706-27.621,23.82-75.306,64.529-96.384c39.234-20.316,69.117-40.69,86.62-53.631C412.564,165.17,395.408,212.866,354.81,233.888z
	"/>
<g>
</g>
<g>
</g>
<g>
</g>
<g>
</g>
<g>
</g>
<g>
</g>
<g>
</g>
<g>
</g>
<g>
</g>
<g>
</g>
<g>
</g>
<g>
</g>
<g>
</g>
<g>
</g>
<g>
</g>
</svg>
